<svg xmlns="http://www.w3.org/2000/svg" xmlns:xlink="http://www.w3.org/1999/xlink" width="600" height="600" viewBox="0 0 600 600"><defs><clipPath id="b"><rect width="600" height="600"/></clipPath></defs><g id="a" clip-path="url(#b)"><g transform="translate(24 73.188)"><circle cx="42" cy="42" r="42" transform="translate(384 161)"/><circle cx="42" cy="42" r="42" transform="translate(84 161)"/><g transform="translate(21 88)" fill="none" stroke-linecap="square" stroke-linejoin="round"><path d="M255.5,0,511,365.624,255.5,277.231,0,365.624Z" stroke="none"/><path d="M 255.5 104.7476806640625 L 155.049560546875 248.4937133789063 L 235.8831176757813 220.5283508300781 C 242.2373046875 218.3300476074219 248.86865234375 217.2308807373047 255.5 217.2308807373047 C 262.13134765625 217.2308807373047 268.7626953125 218.3300476074219 275.1168823242188 220.5283508300781 L 355.950439453125 248.4937133789063 L 255.5 104.7476806640625 M 255.5 -3.0517578125e-05 L 511 365.6242370605469 L 255.5 277.2308349609375 L 0 365.6242370605469 L 255.5 -3.0517578125e-05 Z" stroke="none" fill="#d8a631"/></g><g transform="translate(-235 -218)"><g transform="translate(235 218)" fill="none" stroke="#214d78" stroke-width="40"><path d="M0,0H250a0,0,0,0,1,0,0V141A125,125,0,0,1,125,266h0A125,125,0,0,1,0,141V0A0,0,0,0,1,0,0Z" stroke="none"/><path d="M40,20H210a20,20,0,0,1,20,20V141A105,105,0,0,1,125,246h0A105,105,0,0,1,20,141V40A20,20,0,0,1,40,20Z" fill="none"/></g><g transform="translate(537 218)" fill="none" stroke="#214d78" stroke-width="40"><path d="M0,0H250a0,0,0,0,1,0,0V141A125,125,0,0,1,125,266h0A125,125,0,0,1,0,141V0A0,0,0,0,1,0,0Z" stroke="none"/><path d="M40,20H210a20,20,0,0,1,20,20V141A105,105,0,0,1,125,246h0A105,105,0,0,1,20,141V40A20,20,0,0,1,40,20Z" fill="none"/></g><rect width="109" height="158" transform="translate(456 218)" fill="#214d78"/></g></g></g></svg>